<svg height="383pt" viewBox="0 0 383 383.998" width="383pt" xmlns="http://www.w3.org/2000/svg"><path d="m299.808594 4.6875c-6.25-6.25-16.375-6.25-22.625 0l-248 248c-2.152344 2.152344-3.648438 4.871094-4.304688 7.839844l-15.917968 71.648437-7.984376 31.941407c-1.359374 5.457031.230469 11.21875 4.207032 15.191406 3.03125 3.042968 7.121094 4.6875 11.3125 4.6875 1.296875 0 2.59375-.15625 3.878906-.476563l31.875-7.96875 71.71875-15.9375c2.96875-.65625 5.6875-2.152343 7.839844-4.304687l248-248c6.246094-6.246094 6.246094-16.375 0-22.621094zm-155.3125 292.6875-17.375-17.378906 153.375-153.375 17.375 17.375zm-40-40-17.375-17.378906 153.375-153.375 17.375 17.375zm-50.894532 85.101562-11.578124-11.574218 13.089843-58.878906 9.382813-9.402344 57.375 57.375-9.390625 9.394531zm266.894532-221.101562-57.375-57.378906 25.375-25.375 57.375 57.375zm0 0"/></svg>