<svg height="384pt" viewBox="0 -8 384 384" width="384pt" xmlns="http://www.w3.org/2000/svg"><path d="m48 368h288c26.472656 0 48-21.527344 48-48v-192c0-26.472656-21.527344-48-48-48h-46.113281l-31.160157-62.320312c-5.453124-10.902344-16.414062-17.679688-28.613281-17.679688h-76.226562c-12.191407 0-23.160157 6.777344-28.621094 17.6875l-31.152344 62.3125h-46.113281c-26.472656 0-48 21.527344-48 48v192c0 26.472656 21.527344 48 48 48zm105.886719-352v16zm0 16h76.21875l24 48h-124.21875zm-121.886719 96c0-8.824219 7.175781-16 16-16h288c8.824219 0 16 7.175781 16 16v192c0 8.824219-7.175781 16-16 16h-288c-8.824219 0-16-7.175781-16-16zm0 0"/><path d="m192 304c44.113281 0 80-35.886719 80-80s-35.886719-80-80-80-80 35.886719-80 80 35.886719 80 80 80zm0-128c26.472656 0 48 21.527344 48 48s-21.527344 48-48 48-48-21.527344-48-48 21.527344-48 48-48zm0 0"/><path d="m184 240h16c8.832031 0 16-7.167969 16-16s-7.167969-16-16-16h-16c-8.832031 0-16 7.167969-16 16s7.167969 16 16 16zm0 0"/><path d="m296 176h16c8.832031 0 16-7.167969 16-16s-7.167969-16-16-16h-16c-8.832031 0-16 7.167969-16 16s7.167969 16 16 16zm0 0"/></svg>