<?xml version="1.0" encoding="iso-8859-1"?>
<!-- Generator: Adobe Illustrator 16.0.0, SVG Export Plug-In . SVG Version: 6.00 Build 0)  -->
<!DOCTYPE svg PUBLIC "-//W3C//DTD SVG 1.1//EN" "http://www.w3.org/Graphics/SVG/1.1/DTD/svg11.dtd">
<svg version="1.1" id="Capa_1" xmlns="http://www.w3.org/2000/svg" xmlns:xlink="http://www.w3.org/1999/xlink" x="0px" y="0px"
	 width="95.044px" height="95.044px" viewBox="0 0 95.044 95.044" style="enable-background:new 0 0 95.044 95.044;"
	 xml:space="preserve">
<g>
	<g>
		<path d="M93.227,23.522c-1.104-0.507-2.408-0.324-3.33,0.471l-18.385,15.83V21.768c0-1.778-1.447-3.226-3.226-3.226H3.225
			C1.447,18.542,0,19.989,0,21.768v51.508c0,1.777,1.446,3.226,3.225,3.226h65.062c1.777,0,3.227-1.446,3.227-3.226V55.222
			l18.385,15.829c0.922,0.796,2.228,0.978,3.33,0.472c1.106-0.508,1.815-1.613,1.815-2.832V26.353
			C95.043,25.135,94.335,24.03,93.227,23.522z"/>
	</g>
</g>
<g>
</g>
<g>
</g>
<g>
</g>
<g>
</g>
<g>
</g>
<g>
</g>
<g>
</g>
<g>
</g>
<g>
</g>
<g>
</g>
<g>
</g>
<g>
</g>
<g>
</g>
<g>
</g>
<g>
</g>
</svg>
