<?xml version="1.0" encoding="iso-8859-1"?>
<!-- Generator: Adobe Illustrator 16.0.0, SVG Export Plug-In . SVG Version: 6.00 Build 0)  -->
<!DOCTYPE svg PUBLIC "-//W3C//DTD SVG 1.1//EN" "http://www.w3.org/Graphics/SVG/1.1/DTD/svg11.dtd">
<svg version="1.1" id="Capa_1" xmlns="http://www.w3.org/2000/svg" xmlns:xlink="http://www.w3.org/1999/xlink" x="0px" y="0px"
	 width="484.287px" height="484.287px" viewBox="0 0 484.287 484.287" style="enable-background:new 0 0 484.287 484.287;"
	 xml:space="preserve">
<g>
	<path d="M314.631,345.811c-8.698,1.734-33.972,21.063-39.69,20.146c-17.479-17.404-33.518-36.266-47.683-56.465
		c-8.669-12.362-16.593-25.234-23.757-38.512l0.076-0.041c-8.955-16.572-16.713-33.799-23.181-51.516
		c-8.459-23.176-14.746-47.124-19.013-71.418c2.52-5.214,32.835-14.877,39.234-21.016c37.275-35.761,27.571-136.837-45.354-126.21
		C61.476,14.408,67.528,125.569,89.272,194.074c8.154,25.685,22.019,63.427,40.909,102.44l5.12,10.035
		c21.18,37.818,44.195,70.789,60.589,92.176c43.732,57.038,131.423,125.622,196.278,56.51
		C442.362,400.183,365.288,335.709,314.631,345.811z"/>
</g>
<g>
</g>
<g>
</g>
<g>
</g>
<g>
</g>
<g>
</g>
<g>
</g>
<g>
</g>
<g>
</g>
<g>
</g>
<g>
</g>
<g>
</g>
<g>
</g>
<g>
</g>
<g>
</g>
<g>
</g>
</svg>
